# xmcd
#
# Track frame offsets:
#	150
#	11460
#	21531
#	34440
#	48605
#
# Disc length: 804 seconds
#
# Revision: 0
# Processed by: cddbd v1.5.2PL0 Copyright (c) Steve Scherf et al.
# Submitted via: EasyCDDAExtractor 10.0.3.1
#
DISCID=3f032205
DTITLE=Clarence Carter - Rhino Hi-Five: Clarence Carter - EP
DYEAR=2005
DGENRE=R&B
TTITLE0=Slip Away
TTITLE1=Too Weak To Fight
TTITLE2=Snatching It Back
TTITLE3=Patches
TTITLE4=I Can't Leave Your Love Alone
EXTD=
EXTT0=
EXTT1=
EXTT2=
EXTT3=
EXTT4=
PLAYORDER=
